<?xml version="1.0" encoding="utf-8"?>
<!-- Generator: Adobe Illustrator 25.3.1, SVG Export Plug-In . SVG Version: 6.00 Build 0)  -->
<svg version="1.1" xmlns="http://www.w3.org/2000/svg" xmlns:xlink="http://www.w3.org/1999/xlink" x="0px" y="0px"
	 viewBox="0 0 500 321.66" style="enable-background:new 0 0 500 321.66;" xml:space="preserve">
<style type="text/css">
	.st0{fill:#FFF200;}
	.st1{fill:#4D4D4D;}
	.st2{fill:#3D3D3D;}
	.st3{fill:#00AA99;}
	.st4{fill:#333333;}
	.st5{display:none;}
	.st6{display:inline;fill:#00AA99;}
	.st7{display:inline;fill:#FFFFFF;}
	.st8{display:inline;}
	.st9{fill:#FFFFFF;}
	.st10{fill:#EAEBED;}
	.st11{fill:#006989;}
	.st12{fill:#333333;stroke:#000000;stroke-miterlimit:10;}
	.st13{fill:#FFFFFF;stroke:#000000;stroke-miterlimit:10;}
</style>
<g id="CAMERA">
</g>
<g id="tier_2">
</g>
<g id="tier_1">
	<g>
		<g>
			<path class="st9" d="M409.64,181.03L409.64,181.03c-2.56-1.58-5.18-3.08-7.84-4.49c-0.07-0.04-0.14-0.07-0.21-0.11
				c-2.65-1.4-5.36-2.71-8.11-3.94c-0.05-0.02-0.09-0.04-0.14-0.06c-1.31-0.58-2.63-1.14-3.97-1.68c-0.1-0.04-0.2-0.08-0.31-0.12
				c-2.73-1.1-5.5-2.11-8.31-3.03c-0.2-0.07-0.4-0.13-0.6-0.2c-1.33-0.43-2.66-0.84-4-1.23c-0.06-0.02-0.12-0.03-0.17-0.05
				c-1.42-0.41-2.85-0.79-4.29-1.16c-0.2-0.05-0.39-0.1-0.59-0.14c-1.22-0.3-2.44-0.59-3.67-0.85c-0.28-0.06-0.56-0.12-0.84-0.18
				c-2.81-0.59-5.65-1.1-8.52-1.52c-0.35-0.05-0.7-0.1-1.05-0.15c-1.19-0.16-2.38-0.31-3.57-0.44c-0.27-0.03-0.53-0.06-0.8-0.09
				c-1.43-0.15-2.86-0.28-4.3-0.38c-0.32-0.02-0.63-0.04-0.95-0.06c-1.16-0.08-2.32-0.14-3.48-0.18c-0.4-0.02-0.8-0.03-1.2-0.05
				c-1.45-0.05-2.91-0.08-4.38-0.08V24.88h-65.66v152.84v0v91.18v27.88h65.66v-71.32c39.39,0,71.32,31.93,71.32,71.32h55.63h8.99
				C474.27,247.85,448.42,204.97,409.64,181.03z"/>
		</g>
		<g>
			<path class="st9" d="M226.18,291.13c-0.04-0.95-0.08-1.9-0.14-2.85c-0.03-0.54-0.07-1.09-0.11-1.63
				c-0.06-0.86-0.13-1.73-0.21-2.59c-0.05-0.56-0.11-1.13-0.17-1.69c-0.09-0.85-0.19-1.69-0.29-2.53c-0.07-0.55-0.13-1.1-0.21-1.65
				c-0.12-0.89-0.26-1.77-0.4-2.66c-0.08-0.49-0.15-0.98-0.23-1.47c-0.22-1.32-0.46-2.63-0.72-3.93c-0.09-0.47-0.2-0.94-0.3-1.41
				c-0.18-0.86-0.36-1.71-0.56-2.56c-0.15-0.63-0.3-1.25-0.46-1.88c-0.17-0.68-0.34-1.36-0.51-2.04c-0.18-0.67-0.36-1.34-0.55-2.01
				c-0.17-0.62-0.35-1.23-0.53-1.85c-0.21-0.7-0.41-1.39-0.63-2.09c-0.17-0.56-0.36-1.11-0.54-1.67c-0.24-0.73-0.48-1.47-0.73-2.2
				c-0.15-0.44-0.31-0.87-0.46-1.3c-1.05-2.93-2.19-5.82-3.43-8.66c-0.09-0.22-0.19-0.44-0.28-0.65c-0.4-0.9-0.81-1.79-1.23-2.68
				c-0.13-0.27-0.25-0.54-0.38-0.82c-0.43-0.9-0.87-1.79-1.31-2.67c-0.12-0.23-0.23-0.46-0.35-0.69c-0.48-0.94-0.97-1.87-1.46-2.79
				c-0.05-0.09-0.1-0.19-0.15-0.28c-8.11-14.88-18.91-28.08-31.76-38.94c0,0,0.01-0.01,0.01-0.01c-5.16-4.36-10.63-8.35-16.4-11.92
				v0c-2.56-1.58-5.18-3.08-7.84-4.49c-0.07-0.04-0.14-0.07-0.21-0.11c-2.65-1.4-5.36-2.71-8.11-3.94
				c-0.05-0.02-0.09-0.04-0.14-0.06c-1.31-0.58-2.63-1.14-3.97-1.68c-0.1-0.04-0.2-0.08-0.31-0.12c-2.73-1.1-5.5-2.11-8.31-3.03
				c-0.2-0.07-0.4-0.13-0.6-0.2c-1.33-0.43-2.66-0.84-4-1.23c-0.06-0.02-0.12-0.03-0.17-0.05c-1.42-0.41-2.85-0.79-4.29-1.16
				c-0.2-0.05-0.39-0.1-0.59-0.14c-1.22-0.3-2.44-0.59-3.67-0.85c-0.28-0.06-0.56-0.12-0.84-0.18c-2.81-0.59-5.65-1.1-8.52-1.52
				c-0.35-0.05-0.7-0.1-1.05-0.15c-1.19-0.16-2.38-0.31-3.57-0.44c-0.27-0.03-0.53-0.06-0.8-0.09c-1.43-0.15-2.86-0.28-4.3-0.38
				c-0.32-0.02-0.63-0.04-0.95-0.06c-1.16-0.08-2.32-0.14-3.48-0.18c-0.4-0.02-0.8-0.03-1.2-0.05c-1.45-0.05-2.91-0.08-4.38-0.08
				v-0.38v-48.69V24.88H24.7v43.44v91.18v18.22v0v91.18v27.88h65.66v-71.32c39.39,0,71.32,31.93,71.32,71.32h55.63h8.99
				c0-1.43-0.03-2.85-0.07-4.26C226.23,292.05,226.2,291.59,226.18,291.13z"/>
		</g>
		<path class="st9" d="M119.02,154.44c25.06,4.54,47.73,15.96,65.98,32.23c25.46-24.7,41.31-59.26,41.31-97.54
			c0-5.26-0.31-10.45-0.89-15.56h-65.46c1.12,5.01,1.72,10.21,1.72,15.56C161.68,118.32,144.14,143.4,119.02,154.44z"/>
		<path class="st9" d="M475.3,247.78V73.57h-65.66v96.55C440.45,186.42,464.24,214.2,475.3,247.78z"/>
	</g>
</g>
</svg>
